<?xml version="1.0" encoding="UTF-8"?>
<svg width="12px" height="12px" viewBox="0 0 12 12" version="1.1" xmlns="http://www.w3.org/2000/svg" xmlns:xlink="http://www.w3.org/1999/xlink">
    <!-- Generator: sketchtool 50 (54983) - http://www.bohemiancoding.com/sketch -->
    <title>FE47145A-DB64-4078-BE22-833A93F16386</title>
    <desc>Created with sketchtool.</desc>
    <defs></defs>
    <g id="Page-1" stroke="none" stroke-width="1" fill="none" fill-rule="evenodd" fill-opacity="0.5">
        <g id="notifications/search-share-copy" transform="translate(-64.000000, -16.000000)" fill="#333333">
            <g id="icon/close" transform="translate(60.000000, 12.000000)">
                <path d="M11.4142136,10.0760772 L14.5555955,13.2174591 C15.1628703,13.8247339 15.3385813,14.6336098 14.948057,15.0241341 C14.5575327,15.4146584 13.7486567,15.2389474 13.141382,14.6316727 L10,11.4902907 L6.85861803,14.6316727 C6.25134328,15.2389474 5.44246733,15.4146584 5.05194304,15.0241341 C4.66141875,14.6336098 4.83712971,13.8247339 5.44440447,13.2174591 L8.58578644,10.0760772 L5.44440447,6.9346952 C4.83712971,6.32742044 4.66141875,5.51854449 5.05194304,5.1280202 C5.44246733,4.73749591 6.25134328,4.91320688 6.85861803,5.52048163 L10,8.6618636 L13.141382,5.52048163 C13.7486567,4.91320688 14.5575327,4.73749591 14.948057,5.1280202 C15.3385813,5.51854449 15.1628703,6.32742044 14.5555955,6.9346952 L11.4142136,10.0760772 Z" id="Combined-Shape"></path>
            </g>
        </g>
    </g>
</svg>