<?xml version="1.0" encoding="UTF-8"?>
<svg width="20px" height="20px" viewBox="0 0 20 20" version="1.1" xmlns="http://www.w3.org/2000/svg" xmlns:xlink="http://www.w3.org/1999/xlink">
    <!-- Generator: Sketch 50.2 (55047) - http://www.bohemiancoding.com/sketch -->
    <title>icon/share-2</title>
    <desc>Created with Sketch.</desc>
    <defs></defs>
    <g id="icon/share-2" stroke="none" stroke-width="1" fill="none" fill-rule="evenodd" fill-opacity="0.5">
        <path d="M12.6460406,5 C11.6132252,5.45974576 10.7018431,6.0334859 9.91450803,6.7224041 C9.81062288,6.81330361 9.70932671,6.90583892 9.61062467,7 L6,7 C5.44771525,7 5,7.44771525 5,8 L5,15 C5,15.5522847 5.44771525,16 6,16 L14,16 C14.5522847,16 15,15.5522847 15,15 L15,11.7274149 C15.6583265,11.9893352 16.4277358,11.8876382 17,11.422525 L17,15 C17,16.6568542 15.6568542,18 14,18 L6,18 C4.34314575,18 3,16.6568542 3,15 L3,8 C3,6.34314575 4.34314575,5 6,5 L12.6460406,5 Z M15.6200885,8.51271803 C13.7546691,9.04185195 12.4519229,9.44518261 11.7118498,9.72271001 C10.3535887,10.2320579 9.1163054,10.9911546 8,12 C8.34348668,10.1836937 9.20115756,8.67535399 10.5730126,7.47498079 C11.3871584,6.76260329 13.069517,6.07314763 15.6200885,5.40661382 L15.0351582,4.92094463 C14.6448414,4.53062781 14.6450096,3.89763103 15.0355339,3.50710673 C15.4260582,3.11658244 16.059055,3.11641425 16.4493718,3.50673107 L19.2762963,6.33365552 C19.6666131,6.72397234 19.6664449,7.35696912 19.2759206,7.74749341 L16.4474935,10.5759205 C16.0569692,10.9664448 15.4239724,10.966613 15.0336556,10.5762962 C14.6433388,10.1859794 14.6435069,9.5529826 15.0340312,9.16245831 L15.6200885,8.51271803 Z" id="Combined-Shape" fill="#333333"></path>
    </g>
</svg>