<?xml version="1.0" encoding="UTF-8"?>
<svg width="76px" height="19px" viewBox="0 0 76 19" version="1.1" xmlns="http://www.w3.org/2000/svg" xmlns:xlink="http://www.w3.org/1999/xlink">
    <!-- Generator: sketchtool 51 (57462) - http://www.bohemiancoding.com/sketch -->
    <title>37041DD3-A16D-4583-8586-A71B193585EB</title>
    <desc>Created with sketchtool.</desc>
    <defs>
        <path d="M8.79542734,21.0361106 C7.32817258,21.8074921 5.61330771,20.5615698 5.89352844,18.9277576 L6.60103886,14.8026553 L3.60397662,11.8812417 C2.41694258,10.7241695 3.07196267,8.70822492 4.71240337,8.46985493 L8.85424152,7.86801062 L10.7065278,4.11486858 C11.4401552,2.62837714 13.5598448,2.62837714 14.2934722,4.11486858 L16.1457585,7.86801062 L20.2875966,8.46985493 C21.9280373,8.70822492 22.5830574,10.7241695 21.3960234,11.8812417 L18.3989611,14.8026553 L19.1064716,18.9277576 C19.3866923,20.5615698 17.6718274,21.8074921 16.2045727,21.0361106 L12.5,19.0885015 L8.79542734,21.0361106 Z" id="path-1"></path>
        <path d="M5.42309576,7 L6.70986293,8.29422165 C7.09925767,8.68587223 7.09742896,9.31903457 6.70577838,9.70842931 C6.3141278,10.0978241 5.68096546,10.0959953 5.29157071,9.70434476 L2.29952068,6.69496124 C1.91092095,6.30411028 1.91183304,5.67251987 2.30156001,5.2827929 L5.29057137,2.29378154 C5.68109566,1.90325725 6.31426064,1.90325725 6.70478493,2.29378154 C7.09530922,2.68430583 7.09530922,3.31747081 6.70478493,3.7079951 L5.41278004,5 L27.5,5 C28.0522847,5 28.5,5.44771525 28.5,6 C28.5,6.55228475 28.0522847,7 27.5,7 L5.42309576,7 Z" id="path-3"></path>
    </defs>
    <g id="Page-1" stroke="none" stroke-width="1" fill="none" fill-rule="evenodd">
        <g id="search-empty-alerts" transform="translate(-604.000000, -489.000000)">
            <g id="no_alerts_stars_transition" transform="translate(601.000000, 486.000000)">
                <g id="ui/icon/star-active">
                    <rect id="Background" x="0" y="0" width="25" height="25"></rect>
                    <mask id="mask-2" fill="white">
                        <use xlink:href="#path-1"></use>
                    </mask>
                    <use id="Path" fill="#FF5A5F" fill-rule="nonzero" xlink:href="#path-1"></use>
                    <g id="background" mask="url(#mask-2)">
                        <rect id="Background" x="0" y="0" width="25" height="25"></rect>
                        <rect id="colors/lead" fill="#FF5A5F" x="0" y="0" width="25" height="25"></rect>
                    </g>
                </g>
                <g id="ui/icon/star-active-copy" transform="translate(59.000000, 3.000000)" fill="#FF5A5F" fill-rule="nonzero">
                    <path d="M10.5,14.1413342 L15.4435965,16.7403367 L14.4994536,11.2355611 L18.4989072,7.33705731 L12.9717983,6.53392136 L10.5,1.52551102 L8.02820173,6.53392136 L2.50109276,7.33705731 L6.50054638,11.2355611 L5.55640345,16.7403367 L10.5,14.1413342 Z M6.79542734,18.0361106 C5.32817258,18.8074921 3.61330771,17.5615698 3.89352844,15.9277576 L4.60103886,11.8026553 L1.60397662,8.88124169 C0.41694258,7.72416947 1.07196267,5.70822492 2.71240337,5.46985493 L6.85424152,4.86801062 L8.70652785,1.11486858 C9.44015523,-0.371622859 11.5598448,-0.371622859 12.2934722,1.11486858 L14.1457585,4.86801062 L18.2875966,5.46985493 C19.9280373,5.70822492 20.5830574,7.72416947 19.3960234,8.88124169 L16.3989611,11.8026553 L17.1064716,15.9277576 C17.3866923,17.5615698 15.6718274,18.8074921 14.2045727,18.0361106 L10.5,16.0885015 L6.79542734,18.0361106 Z" id="Path"></path>
                </g>
                <g id="arrow/payment/left" transform="translate(26.000000, 6.000000)">
                    <rect id="Background" x="0" y="0" width="32" height="12"></rect>
                    <mask id="mask-4" fill="white">
                        <use xlink:href="#path-3"></use>
                    </mask>
                    <use id="Combined-Shape" fill="#5D4245" fill-rule="nonzero" xlink:href="#path-3"></use>
                    <g id="color/text/brown" mask="url(#mask-4)">
                        <rect id="Background" x="0" y="0" width="32" height="12"></rect>
                        <rect id="colors/lead" fill="#FF5A5F" x="0" y="0" width="32" height="12"></rect>
                    </g>
                </g>
            </g>
        </g>
    </g>
</svg>