<?xml version="1.0" encoding="UTF-8"?>
<svg width="14px" height="16px" viewBox="0 0 14 16" version="1.1" xmlns="http://www.w3.org/2000/svg" xmlns:xlink="http://www.w3.org/1999/xlink">
    <!-- Generator: sketchtool 50 (54983) - http://www.bohemiancoding.com/sketch -->
    <title>AD6B5385-8F20-4C1D-B2C6-0DBD3DB5ADDA</title>
    <desc>Created with sketchtool.</desc>
    <defs></defs>
    <g id="Page-1" stroke="none" stroke-width="1" fill="none" fill-rule="evenodd" fill-opacity="0.5">
        <g id="notifications/search" transform="translate(-63.000000, -14.000000)" fill="#333333">
            <g id="icon/share" transform="translate(60.000000, 12.000000)">
                <path d="M15,8.17601845 C16.1651924,8.58785486 17,9.69909392 17,11.0053127 L17,15 C17,16.6568542 15.6568542,18 14,18 L6,18 C4.34314575,18 3,16.6568542 3,15 L3,11.0053127 C3,9.69909392 3.83480763,8.58785486 5,8.17601845 L5,15.0547135 C5,15.6069982 5.44771525,16.0547135 6,16.0547135 L14,16.0547135 C14.5522847,16.0547135 15,15.6069982 15,15.0547135 L15,8.17601845 Z M10,5.07793662 L10,12.0742177 L10,5.07793662 Z M11,5.42143135 L11,12.0742177 C11,12.626209 10.5522847,13.0736864 10,13.0736864 C9.44771525,13.0736864 9,12.626209 9,12.0742177 L9,5.42068001 L7.87943099,6.54124902 C7.48911418,6.93156583 6.85611739,6.93139764 6.4655931,6.54087335 C6.07506881,6.15034906 6.07490061,5.51735227 6.46521743,5.12703546 L9.29214188,2.300111 C9.6824587,1.90979419 10.3154555,1.90996238 10.7059798,2.30048667 L13.5344069,5.12891379 C13.9249312,5.51943809 13.9250994,6.15243487 13.5347826,6.54275169 C13.1444658,6.93306851 12.511469,6.93290031 12.1209447,6.54237602 L11,5.42143135 Z" id="Combined-Shape"></path>
            </g>
        </g>
    </g>
</svg>