<?xml version="1.0" encoding="UTF-8"?>
<svg width="16px" height="16px" viewBox="0 0 16 16" version="1.1" xmlns="http://www.w3.org/2000/svg" xmlns:xlink="http://www.w3.org/1999/xlink">
    <!-- Generator: sketchtool 50 (54983) - http://www.bohemiancoding.com/sketch -->
    <title>CDC73DF2-84D8-45AF-BD2D-7DEE4CDCE12B</title>
    <desc>Created with sketchtool.</desc>
    <defs></defs>
    <g id="Page-1" stroke="none" stroke-width="1" fill="none" fill-rule="evenodd" fill-opacity="0.5">
        <g id="notifications/search" transform="translate(-2.000000, -14.000000)" fill="#333333">
            <g id="icon/trash" transform="translate(0.000000, 12.000000)">
                <path d="M4,7 L3,7 C2.44771525,7 2,6.55228475 2,6 C2,5.44771525 2.44771525,5 3,5 L7,5 L7,4 C7,2.8954305 7.76751186,2 8.71428571,2 L11.2857143,2 C12.2324881,2 13,2.8954305 13,4 L13,5 L17,5 C17.5522847,5 18,5.44771525 18,6 C18,6.55228475 17.5522847,7 17,7 L16,7 L16,16 C16,17.1045695 15.1734488,18 14.1538462,18 L5.84615385,18 C4.82655123,18 4,17.1045695 4,16 L4,7 Z M8.71428571,4 L8.71428571,5 L11.2857143,5 L11.2857143,4 L8.71428571,4 Z M6,7 L6,16 L14,16 L14,7 L6,7 Z M8,9 C8.55228475,9 9,9.44771525 9,10 L9,13 C9,13.5522847 8.55228475,14 8,14 C7.44771525,14 7,13.5522847 7,13 L7,10 C7,9.44771525 7.44771525,9 8,9 Z M12,9 C12.5522847,9 13,9.44771525 13,10 L13,13 C13,13.5522847 12.5522847,14 12,14 C11.4477153,14 11,13.5522847 11,13 L11,10 C11,9.44771525 11.4477153,9 12,9 Z" id="Combined-Shape"></path>
            </g>
        </g>
    </g>
</svg>