<?xml version="1.0" encoding="UTF-8"?>
<svg width="161px" height="91px" viewBox="0 0 161 91" version="1.1" xmlns="http://www.w3.org/2000/svg" xmlns:xlink="http://www.w3.org/1999/xlink">
    <!-- Generator: sketchtool 51 (57462) - http://www.bohemiancoding.com/sketch -->
    <title>2D324072-55A5-4C43-BF6D-95B1F90A9483</title>
    <desc>Created with sketchtool.</desc>
    <defs></defs>
    <g id="Page-1" stroke="none" stroke-width="1" fill="none" fill-rule="evenodd">
        <g id="search-empty-alerts" transform="translate(-560.000000, -135.000000)">
            <g id="update_stars_empty" transform="translate(555.000000, 136.000000)" fill-rule="nonzero" stroke="#FF5A5F" stroke-dasharray="4" stroke-width="2">
                <path d="M71.1817094,72.1444424 C65.3126903,75.2299683 58.4532308,70.2462793 59.5741137,63.7110305 L62.4041554,47.2106214 L50.4159065,35.5249667 C45.6677703,30.8966779 48.2878507,22.8328997 54.8496135,21.8794197 L71.4169661,19.4720425 L78.8261114,4.45947431 C81.7606209,-1.48649144 90.2393791,-1.48649144 93.1738886,4.45947431 L100.583034,19.4720425 L117.150387,21.8794197 C123.712149,22.8328997 126.33223,30.8966779 121.584094,35.5249667 L109.595845,47.2106214 L112.425886,63.7110305 C113.546769,70.2462793 106.68731,75.2299683 100.818291,72.1444424 L86,64.3540059 L71.1817094,72.1444424 Z" id="Path"></path>
                <path d="M21.9222772,84.5824752 C18.0487247,86.6189223 13.5214814,83.3296876 14.2612641,79.0164234 L16.1290917,68.1261534 L8.21684734,60.4136213 C5.08307748,57.3589507 6.81233052,52.0368571 11.143094,51.4075603 L22.0775467,49.8186913 L26.9675826,39.9103963 C28.9043589,35.9860589 34.5003393,35.9860589 36.4371156,39.9103963 L41.3271515,49.8186913 L52.2616042,51.4075603 C56.5923676,52.0368571 58.3216207,57.3589507 55.1878508,60.4136213 L47.2756065,68.1261534 L49.143434,79.0164234 C49.8832167,83.3296876 45.3559735,86.6189223 41.4824209,84.5824752 L31.7023491,79.4407872 L21.9222772,84.5824752 Z" id="Path" transform="translate(31.702349, 61.083925) rotate(-18.000000) translate(-31.702349, -61.083925) "></path>
                <path d="M129.387189,84.5499654 C125.513637,86.5864125 120.986394,83.2971778 121.726176,78.9839136 L123.594004,68.0936436 L115.681759,60.3811115 C112.54799,57.3264409 114.277243,52.0043472 118.608006,51.3750505 L129.542459,49.7861815 L134.432495,39.8778865 C136.369271,35.9535491 141.965251,35.9535491 143.902028,39.8778865 L148.792064,49.7861815 L159.726516,51.3750505 C164.05728,52.0043472 165.786533,57.3264409 162.652763,60.3811115 L154.740519,68.0936436 L156.608346,78.9839136 C157.348129,83.2971778 152.820886,86.5864125 148.947333,84.5499654 L139.167261,79.4082774 L129.387189,84.5499654 Z" id="Path" transform="translate(139.167261, 61.051415) rotate(10.000000) translate(-139.167261, -61.051415) "></path>
            </g>
        </g>
    </g>
</svg>